<mxfile host="Electron" agent="Mozilla/5.0 (Windows NT 10.0; Win64; x64) AppleWebKit/537.36 (KHTML, like Gecko) draw.io/27.0.9 Chrome/134.0.6998.205 Electron/35.4.0 Safari/537.36" version="27.0.9">
  <diagram name="Page-1" id="8fFUJADkAodPI0ItwECS">
    <mxGraphModel dx="872" dy="529" grid="1" gridSize="10" guides="1" tooltips="1" connect="1" arrows="1" fold="1" page="1" pageScale="1" pageWidth="850" pageHeight="1100" math="0" shadow="0">
      <root>
        <mxCell id="0" />
        <mxCell id="1" parent="0" />
        <mxCell id="MTXAg_UgH765-Sw6SF0x-1" value="" style="rounded=0;whiteSpace=wrap;html=1;" vertex="1" parent="1">
          <mxGeometry x="50" y="70" width="240" height="180" as="geometry" />
        </mxCell>
        <mxCell id="MTXAg_UgH765-Sw6SF0x-2" value="Instructor" style="text;html=1;align=center;verticalAlign=middle;whiteSpace=wrap;rounded=0;strokeColor=#d6b656;fillColor=#fff2cc;" vertex="1" parent="1">
          <mxGeometry x="50" y="70" width="240" height="30" as="geometry" />
        </mxCell>
        <mxCell id="MTXAg_UgH765-Sw6SF0x-3" value="&lt;p style=&quot;white-space-collapse: preserve;&quot; dir=&quot;auto&quot;&gt;&lt;u&gt;InstructorID (INT, PRIMARY KEY)&lt;/u&gt;&lt;/p&gt;" style="text;html=1;align=center;verticalAlign=middle;whiteSpace=wrap;rounded=0;fillColor=#d0cee2;strokeColor=#56517e;" vertex="1" parent="1">
          <mxGeometry x="50" y="100" width="240" height="30" as="geometry" />
        </mxCell>
        <mxCell id="MTXAg_UgH765-Sw6SF0x-5" value="&lt;p style=&quot;white-space-collapse: preserve;&quot; dir=&quot;auto&quot;&gt;Name (VARCHAR(255), NOT NULL)&lt;/p&gt;" style="text;html=1;align=center;verticalAlign=middle;whiteSpace=wrap;rounded=0;fillColor=#d0cee2;strokeColor=#56517e;" vertex="1" parent="1">
          <mxGeometry x="50" y="130" width="240" height="30" as="geometry" />
        </mxCell>
        <mxCell id="MTXAg_UgH765-Sw6SF0x-6" value="&lt;p style=&quot;white-space-collapse: preserve;&quot; dir=&quot;auto&quot;&gt;Email (VARCHAR(255), NOT NULL, UNIQUE)&lt;/p&gt;" style="text;html=1;align=center;verticalAlign=middle;whiteSpace=wrap;rounded=0;fillColor=#d0cee2;strokeColor=#56517e;" vertex="1" parent="1">
          <mxGeometry x="50" y="160" width="240" height="30" as="geometry" />
        </mxCell>
        <mxCell id="MTXAg_UgH765-Sw6SF0x-7" value="&lt;p style=&quot;white-space-collapse: preserve;&quot; dir=&quot;auto&quot;&gt;Phone (VARCHAR(15))&lt;/p&gt;" style="text;html=1;align=center;verticalAlign=middle;whiteSpace=wrap;rounded=0;fillColor=#d0cee2;strokeColor=#56517e;" vertex="1" parent="1">
          <mxGeometry x="50" y="190" width="240" height="30" as="geometry" />
        </mxCell>
        <mxCell id="MTXAg_UgH765-Sw6SF0x-8" value="&lt;p style=&quot;white-space-collapse: preserve;&quot; dir=&quot;auto&quot;&gt;Department (VARCHAR(50))&lt;/p&gt;" style="text;html=1;align=center;verticalAlign=middle;whiteSpace=wrap;rounded=0;fillColor=#d0cee2;strokeColor=#56517e;" vertex="1" parent="1">
          <mxGeometry x="50" y="220" width="240" height="30" as="geometry" />
        </mxCell>
        <mxCell id="MTXAg_UgH765-Sw6SF0x-13" value="" style="rounded=0;whiteSpace=wrap;html=1;" vertex="1" parent="1">
          <mxGeometry x="40" y="380" width="240" height="150" as="geometry" />
        </mxCell>
        <mxCell id="MTXAg_UgH765-Sw6SF0x-14" value="&lt;p style=&quot;white-space-collapse: preserve;&quot; dir=&quot;auto&quot;&gt;Course&lt;/p&gt;" style="text;html=1;align=center;verticalAlign=middle;whiteSpace=wrap;rounded=0;strokeColor=#d6b656;fillColor=#fff2cc;" vertex="1" parent="1">
          <mxGeometry x="40" y="380" width="240" height="30" as="geometry" />
        </mxCell>
        <mxCell id="MTXAg_UgH765-Sw6SF0x-15" value="&lt;p style=&quot;white-space-collapse: preserve;&quot; dir=&quot;auto&quot;&gt;&lt;u&gt;CourseID (INT, PRIMARY KEY)&lt;/u&gt;&lt;/p&gt;" style="text;html=1;align=center;verticalAlign=middle;whiteSpace=wrap;rounded=0;fillColor=#d0cee2;strokeColor=#56517e;" vertex="1" parent="1">
          <mxGeometry x="40" y="410" width="240" height="30" as="geometry" />
        </mxCell>
        <mxCell id="MTXAg_UgH765-Sw6SF0x-16" value="&lt;p style=&quot;white-space-collapse: preserve;&quot; dir=&quot;auto&quot;&gt;Title (VARCHAR(255), NOT NULL)&lt;/p&gt;" style="text;html=1;align=center;verticalAlign=middle;whiteSpace=wrap;rounded=0;fillColor=#d0cee2;strokeColor=#56517e;" vertex="1" parent="1">
          <mxGeometry x="40" y="440" width="240" height="30" as="geometry" />
        </mxCell>
        <mxCell id="MTXAg_UgH765-Sw6SF0x-17" value="&lt;p style=&quot;white-space-collapse: preserve;&quot; dir=&quot;auto&quot;&gt;Credits (INT, NOT NULL)&lt;/p&gt;" style="text;html=1;align=center;verticalAlign=middle;whiteSpace=wrap;rounded=0;fillColor=#d0cee2;strokeColor=#56517e;" vertex="1" parent="1">
          <mxGeometry x="40" y="470" width="240" height="30" as="geometry" />
        </mxCell>
        <mxCell id="MTXAg_UgH765-Sw6SF0x-39" style="edgeStyle=orthogonalEdgeStyle;rounded=0;orthogonalLoop=1;jettySize=auto;html=1;entryX=0.5;entryY=0;entryDx=0;entryDy=0;" edge="1" parent="1" source="MTXAg_UgH765-Sw6SF0x-19" target="MTXAg_UgH765-Sw6SF0x-33">
          <mxGeometry relative="1" as="geometry">
            <Array as="points">
              <mxPoint x="160" y="600" />
              <mxPoint x="350" y="600" />
            </Array>
          </mxGeometry>
        </mxCell>
        <mxCell id="MTXAg_UgH765-Sw6SF0x-19" value="&lt;p style=&quot;white-space-collapse: preserve;&quot; dir=&quot;auto&quot;&gt;&lt;font face=&quot;italic&quot;&gt;InstructorID (INT, FOREIGN KEY)&lt;/font&gt;&lt;/p&gt;" style="text;html=1;align=center;verticalAlign=middle;whiteSpace=wrap;rounded=0;fillColor=#d0cee2;strokeColor=#56517e;" vertex="1" parent="1">
          <mxGeometry x="40" y="500" width="240" height="30" as="geometry" />
        </mxCell>
        <mxCell id="MTXAg_UgH765-Sw6SF0x-24" style="edgeStyle=orthogonalEdgeStyle;rounded=0;orthogonalLoop=1;jettySize=auto;html=1;entryX=0.542;entryY=0;entryDx=0;entryDy=0;entryPerimeter=0;" edge="1" parent="1" source="MTXAg_UgH765-Sw6SF0x-8" target="MTXAg_UgH765-Sw6SF0x-14">
          <mxGeometry relative="1" as="geometry" />
        </mxCell>
        <mxCell id="MTXAg_UgH765-Sw6SF0x-25" value="" style="rounded=0;whiteSpace=wrap;html=1;" vertex="1" parent="1">
          <mxGeometry x="400" y="380" width="240" height="150" as="geometry" />
        </mxCell>
        <mxCell id="MTXAg_UgH765-Sw6SF0x-26" value="&lt;p style=&quot;white-space-collapse: preserve;&quot; dir=&quot;auto&quot;&gt;Student&lt;/p&gt;" style="text;html=1;align=center;verticalAlign=middle;whiteSpace=wrap;rounded=0;strokeColor=#d6b656;fillColor=#fff2cc;" vertex="1" parent="1">
          <mxGeometry x="400" y="380" width="240" height="30" as="geometry" />
        </mxCell>
        <mxCell id="MTXAg_UgH765-Sw6SF0x-27" value="&lt;p style=&quot;white-space-collapse: preserve;&quot; dir=&quot;auto&quot;&gt;&lt;u&gt;StudentID (INT, PRIMARY KEY)&lt;/u&gt;&lt;/p&gt;" style="text;html=1;align=center;verticalAlign=middle;whiteSpace=wrap;rounded=0;fillColor=#d0cee2;strokeColor=#56517e;" vertex="1" parent="1">
          <mxGeometry x="400" y="410" width="240" height="30" as="geometry" />
        </mxCell>
        <mxCell id="MTXAg_UgH765-Sw6SF0x-28" value="&lt;p style=&quot;white-space-collapse: preserve;&quot; dir=&quot;auto&quot;&gt;Name (VARCHAR(255), NOT NULL)&lt;/p&gt;" style="text;html=1;align=center;verticalAlign=middle;whiteSpace=wrap;rounded=0;fillColor=#d0cee2;strokeColor=#56517e;" vertex="1" parent="1">
          <mxGeometry x="400" y="440" width="240" height="30" as="geometry" />
        </mxCell>
        <mxCell id="MTXAg_UgH765-Sw6SF0x-29" value="&lt;p style=&quot;white-space-collapse: preserve;&quot; dir=&quot;auto&quot;&gt;Email (VARCHAR(100), NOT NULL)&lt;/p&gt;" style="text;html=1;align=center;verticalAlign=middle;whiteSpace=wrap;rounded=0;fillColor=#d0cee2;strokeColor=#56517e;" vertex="1" parent="1">
          <mxGeometry x="400" y="470" width="240" height="30" as="geometry" />
        </mxCell>
        <mxCell id="MTXAg_UgH765-Sw6SF0x-42" style="edgeStyle=orthogonalEdgeStyle;rounded=0;orthogonalLoop=1;jettySize=auto;html=1;exitX=0.5;exitY=1;exitDx=0;exitDy=0;entryX=0.5;entryY=0;entryDx=0;entryDy=0;" edge="1" parent="1" source="MTXAg_UgH765-Sw6SF0x-30" target="MTXAg_UgH765-Sw6SF0x-33">
          <mxGeometry relative="1" as="geometry">
            <mxPoint x="520" y="560" as="targetPoint" />
            <Array as="points">
              <mxPoint x="520" y="600" />
              <mxPoint x="350" y="600" />
            </Array>
          </mxGeometry>
        </mxCell>
        <mxCell id="MTXAg_UgH765-Sw6SF0x-30" value="&lt;p style=&quot;white-space-collapse: preserve;&quot; dir=&quot;auto&quot;&gt;Phone (VARCHAR(15))&lt;/p&gt;" style="text;html=1;align=center;verticalAlign=middle;whiteSpace=wrap;rounded=0;fillColor=#d0cee2;strokeColor=#56517e;" vertex="1" parent="1">
          <mxGeometry x="400" y="500" width="240" height="30" as="geometry" />
        </mxCell>
        <mxCell id="MTXAg_UgH765-Sw6SF0x-32" value="" style="rounded=0;whiteSpace=wrap;html=1;" vertex="1" parent="1">
          <mxGeometry x="230" y="640" width="240" height="150" as="geometry" />
        </mxCell>
        <mxCell id="MTXAg_UgH765-Sw6SF0x-33" value="&lt;p style=&quot;white-space-collapse: preserve;&quot; dir=&quot;auto&quot;&gt;&lt;span style=&quot;font-family: Times, serif; font-size: 14px; text-align: start; white-space: nowrap;&quot;&gt;Enrollment&lt;/span&gt;&lt;/p&gt;" style="text;html=1;align=center;verticalAlign=middle;whiteSpace=wrap;rounded=0;strokeColor=#d6b656;fillColor=#fff2cc;" vertex="1" parent="1">
          <mxGeometry x="230" y="640" width="240" height="30" as="geometry" />
        </mxCell>
        <mxCell id="MTXAg_UgH765-Sw6SF0x-34" value="&lt;p style=&quot;white-space-collapse: preserve;&quot; dir=&quot;auto&quot;&gt;&lt;u&gt;EnrollmentID (INT, PRIMARY KEY)&lt;/u&gt;&lt;/p&gt;" style="text;html=1;align=center;verticalAlign=middle;whiteSpace=wrap;rounded=0;fillColor=#d0cee2;strokeColor=#56517e;" vertex="1" parent="1">
          <mxGeometry x="230" y="670" width="240" height="30" as="geometry" />
        </mxCell>
        <mxCell id="MTXAg_UgH765-Sw6SF0x-35" value="&lt;p style=&quot;white-space-collapse: preserve;&quot; dir=&quot;auto&quot;&gt;&lt;font face=&quot;italic&quot;&gt;StudentId(INT,FOREIGN KEY)&lt;/font&gt;&lt;/p&gt;" style="text;html=1;align=center;verticalAlign=middle;whiteSpace=wrap;rounded=0;fillColor=#d0cee2;strokeColor=#56517e;" vertex="1" parent="1">
          <mxGeometry x="230" y="700" width="240" height="30" as="geometry" />
        </mxCell>
        <mxCell id="MTXAg_UgH765-Sw6SF0x-36" value="&lt;p style=&quot;white-space-collapse: preserve;&quot; dir=&quot;auto&quot;&gt;&lt;font face=&quot;italic&quot;&gt;CourseId(INT,FOREIGN KEY)&lt;/font&gt;&lt;/p&gt;" style="text;html=1;align=center;verticalAlign=middle;whiteSpace=wrap;rounded=0;fillColor=#d0cee2;strokeColor=#56517e;" vertex="1" parent="1">
          <mxGeometry x="230" y="730" width="240" height="30" as="geometry" />
        </mxCell>
        <mxCell id="MTXAg_UgH765-Sw6SF0x-37" value="&lt;p style=&quot;white-space-collapse: preserve;&quot; dir=&quot;auto&quot;&gt;EnrollmentDate(DATA NOT NULL)&lt;/p&gt;" style="text;html=1;align=center;verticalAlign=middle;whiteSpace=wrap;rounded=0;fillColor=#d0cee2;strokeColor=#56517e;" vertex="1" parent="1">
          <mxGeometry x="230" y="760" width="240" height="30" as="geometry" />
        </mxCell>
      </root>
    </mxGraphModel>
  </diagram>
</mxfile>
